Coordinates
version=1
nRows=4
nColumns=107
inDegrees=yes

Units are S.I. units (second, meters, Newtons, ...)
If the header above contains a line with 'inDegrees', this indicates whether rotational values are in degrees (yes) or radians (no).

endheader
time	sternoclavicular_r2	sternoclavicular_r3	unrotscap_r3	unrotscap_r2	acromioclavicular_r2	acromioclavicular_r3	acromioclavicular_r1	unrothum_r1	unrothum_r3	unrothum_r2	elv_angle	shoulder_elv	shoulder1_r2	shoulder_rot	elbow_flexion	pro_sup	deviation	flexion	proximal_distal_r1	proximal_distal_r3	cmc_flexion	cmc_abduction	mp_flexion	ip_flexion	mcp2_flexion	mcp2_abduction	pm2_flexion	md2_flexion	mcp3_flexion	mcp3_abduction	pm3_flexion	md3_flexion	mcp4_flexion	mcp4_abduction	pm4_flexion	md4_flexion	mcp5_flexion	mcp5_abduction	pm5_flexion	md5_flexion	bicpt_tx	bicpt_ty	bicpt_tz	bicpt2_tx	bicpt2_ty	bicpt2_tz	ptpt_tx	ptpt_ty	ptpt_tz	FCUpt_tx	FCUpt_ty	FCUpt_tz	EDCpt_tx	EDCpt_ty	EDCpt_tz	APLpt_tx	APLpt_ty	APLpt_tz	FPLpt_tx	FPLpt_ty	FPLpt_tz	FPLpt2_tx	FPLpt2_ty	FPLpt2_tz	PEC1pt2_tx	PEC1pt2_ty	PEC1pt2_tz	PEC1pt3_tx	PEC1pt3_ty	PEC1pt3_tz	PEC2pt2_tx	PEC2pt2_ty	PEC2pt2_tz	PEC2pt3_tx	PEC2pt3_ty	PEC2pt3_tz	PEC3pt2_tx	PEC3pt2_ty	PEC3pt2_tz	PEC3pt3_tx	PEC3pt3_ty	PEC3pt3_tz	DELT2pt2a_tx	DELT2pt2a_ty	DELT2pt2a_tz	DELT2pt2_tx	DELT2pt2_ty	DELT2pt2_tz	LAT1pt2_tx	LAT1pt2_ty	LAT1pt2_tz	LAT1pt3_tx	LAT1pt3_ty	LAT1pt3_tz	LAT2pt2_tx	LAT2pt2_ty	LAT2pt2_tz	LAT2pt3_tx	LAT2pt3_ty	LAT2pt3_tz	LAT3pt2_tx	LAT3pt2_ty	LAT3pt2_tz	LAT3pt3_tx	LAT3pt3_ty	LAT3pt3_tz
      0.50000000	     -0.31960326	      0.13536886	     -0.13536886	      0.31960326	     -0.06471316	      0.52298899	      0.23507995	     -0.23507995	     -0.52298899	      0.06471316	    100.03985536	     75.66891296	     -1.74602486	    -25.04302277	     27.24526442	     22.41383477	      0.01012722	     -0.80447896	      0.01366031	     -0.40223948	     -5.13737234	     -5.00184077	    -28.45973520	    -38.49812028	     -5.75234986	     12.14089431	      9.57717172	    -26.85614406	     38.00477289	      5.71078951	     83.87689168	     58.89813009	     29.90475252	     -5.34090556	     83.56660381	     41.13676084	      6.70322906	     -3.52739669	    -21.83111714	      4.90506997	      0.00080119	     -0.03072272	     -0.00480299	      0.01618778	     -0.01760131	     -0.00913057	      0.00589387	     -0.06597088	     -0.00185555	      0.00605741	     -0.18381699	     -0.00014512	     -0.00268965	      0.00071258	      0.00018886	      0.00028111	      0.00011244	      0.00056222	      0.00035982	      0.00107945	      0.00060719	     -0.00038092	      0.00014310	      0.00017172	      0.00248026	      0.00870193	      0.00605352	     -0.00811340	      0.01958986	     -0.01858094	      0.00248026	      0.00870193	      0.00605352	      0.00054650	      0.01816055	     -0.00954270	      0.00392904	      0.00483903	      0.01592125	      0.00000000	      0.00765676	      0.00000000	     -0.00710448	     -0.03283193	     -0.00631265	      0.01651626	     -0.00059164	     -0.00524193	     -0.00088280	      0.01479749	     -0.00605352	      0.00243822	      0.02135547	     -0.01765609	     -0.00592740	      0.01282169	     -0.00542294	     -0.01235927	      0.02707268	     -0.03030963	     -0.02320515	      0.01433507	     -0.00727263	     -0.01538603	      0.03127651	     -0.03787653
      0.53333333	     -0.32048383	      0.13574182	     -0.13574182	      0.32048383	     -0.06489146	      0.52442992	      0.23572764	     -0.23572764	     -0.52442992	      0.06489146	     99.88828362	     75.87739443	     -1.74337943	    -23.96958718	     27.03258281	     21.15439535	      0.00868895	     -0.82032312	      0.01173032	     -0.41016156	     -5.05445306	     -4.62432510	    -28.27299000	    -38.36688462	     -6.00727155	     12.08528441	      9.63207241	    -26.42013748	     38.38679068	      5.73223197	     84.03471289	     58.55431816	     30.99579863	     -5.32640493	     83.46667920	     40.49987974	      6.63839722	     -3.51714392	    -21.73912843	      4.90142428	      0.00079415	     -0.03069835	     -0.00479906	      0.01613294	     -0.01754353	     -0.00923285	      0.00598693	     -0.06591071	     -0.00175410	      0.00593769	     -0.18383667	     -0.00011891	     -0.00253852	      0.00066843	      0.00018547	      0.00027576	      0.00011030	      0.00055152	      0.00035297	      0.00105891	      0.00059564	     -0.00037039	      0.00014055	      0.00016867	      0.00248709	      0.00872591	      0.00607020	     -0.00813575	      0.01964383	     -0.01863213	      0.00248709	      0.00872591	      0.00607020	      0.00054800	      0.01821059	     -0.00956899	      0.00393696	      0.00485237	      0.01594074	      0.00000000	      0.00769930	      0.00000000	     -0.00712405	     -0.03292239	     -0.00634797	      0.01596154	     -0.00055687	     -0.00479686	     -0.00088524	      0.01483826	     -0.00607020	      0.00244494	      0.02141430	     -0.01770474	     -0.00594373	      0.01285701	     -0.00543788	     -0.01239332	      0.02714727	     -0.03039314	     -0.02326909	      0.01437456	     -0.00729267	     -0.01542842	      0.03136268	     -0.03798088
      0.56666667	     -0.32041129	      0.13571110	     -0.13571110	      0.32041129	     -0.06487677	      0.52431123	      0.23567429	     -0.23567429	     -0.52431123	      0.06487677	     99.84524921	     75.86022210	     -1.74262834	    -23.99104160	     27.22014187	     21.57902573	      0.02333213	     -0.78622422	      0.03122025	     -0.39311211	     -5.16176190	     -4.94055858	    -28.48508577	    -38.27089604	     -6.85143782	     12.08887531	     10.14578670	    -27.33962306	     37.98324478	      5.87452385	     84.03599168	     58.67737661	     30.19681552	     -5.11530717	     83.27802556	     41.11783293	      6.71141761	     -3.48210048	    -22.18822289	      4.88562873	      0.00080036	     -0.03071984	     -0.00480253	      0.01615184	     -0.01759449	     -0.00919861	      0.00595555	     -0.06593100	     -0.00178831	      0.00597800	     -0.18383009	     -0.00012788	     -0.00258948	      0.00068326	      0.00018671	      0.00028675	      0.00011470	      0.00057350	      0.00036704	      0.00110111	      0.00061937	     -0.00038404	      0.00014385	      0.00017262	      0.00248653	      0.00872393	      0.00606882	     -0.00813391	      0.01963939	     -0.01862791	      0.00248653	      0.00872393	      0.00606882	      0.00054788	      0.01820647	     -0.00956682	      0.00393631	      0.00485127	      0.01593914	      0.00000000	      0.00769579	      0.00000000	     -0.00712244	     -0.03291494	     -0.00634506	      0.01597278	     -0.00055756	     -0.00480560	     -0.00088504	      0.01483490	     -0.00606882	      0.00244439	      0.02140946	     -0.01770073	     -0.00594239	      0.01285410	     -0.00543665	     -0.01239051	      0.02714112	     -0.03038626	     -0.02326382	      0.01437131	     -0.00729102	     -0.01542492	      0.03135558	     -0.03797229
      0.60000000	     -0.32044775	      0.13572654	     -0.13572654	      0.32044775	     -0.06488415	      0.52437089	      0.23570111	     -0.23570111	     -0.52437089	      0.06488415	     99.83659043	     75.86885438	     -1.74247722	    -23.99570485	     27.21970837	     21.57849415	      0.02335247	     -0.78625288	      0.03124622	     -0.39312644	     -5.16233182	     -4.94069618	    -28.48532822	    -38.27098785	     -6.85423764	     12.08861208	     10.14506258	    -27.34000569	     37.98508521	      5.87472522	     84.03626040	     58.67740885	     30.19674117	     -5.11551420	     83.27872955	     41.11797318	      6.70938450	     -3.48201109	    -22.18914530	      4.88556076	      0.00080034	     -0.03071979	     -0.00480252	      0.01615182	     -0.01759437	     -0.00919865	      0.00595559	     -0.06593097	     -0.00178826	      0.00597795	     -0.18383010	     -0.00012787	     -0.00258941	      0.00068325	      0.00018671	      0.00028674	      0.00011470	      0.00057348	      0.00036703	      0.00110108	      0.00061936	     -0.00038413	      0.00014386	      0.00017264	      0.00248681	      0.00872493	      0.00606951	     -0.00813483	      0.01964162	     -0.01863003	      0.00248681	      0.00872493	      0.00606951	      0.00054794	      0.01820854	     -0.00956791	      0.00393664	      0.00485182	      0.01593995	      0.00000000	      0.00769755	      0.00000000	     -0.00712325	     -0.03291868	     -0.00634652	      0.01597522	     -0.00055771	     -0.00480750	     -0.00088514	      0.01483659	     -0.00606951	      0.00244467	      0.02141189	     -0.01770275	     -0.00594307	      0.01285557	     -0.00543727	     -0.01239192	      0.02714421	     -0.03038972	     -0.02326647	      0.01437295	     -0.00729185	     -0.01542668	      0.03135915	     -0.03797661
